<?xml version="1.0" encoding="utf-8"?>
<!-- Generator: Adobe Illustrator 19.0.0, SVG Export Plug-In . SVG Version: 6.00 Build 0)  -->
<svg version="1.1" id="layer" xmlns="http://www.w3.org/2000/svg" xmlns:xlink="http://www.w3.org/1999/xlink" x="0px" y="0px"
	 viewBox="-153 -46 652 652" style="enable-background:new -153 -46 652 652;" xml:space="preserve">
<path d="M-108.6,415h-17.7v-2.6h5.1v-44.2h-4.7v-2.6h31.3c6.6,0,15.6,0.1,15.7,0.1l0,0l1.8,15.4h-2.3l-0.2-0.6
	c-2.8-9.6-4.8-12.3-15-12.3H-113v21.6h10.8c9.2,0,11.8-0.8,11.8-6.7v-0.9h2.3v17.7h-2.3v-0.9c0-4.2-2.6-6.5-11.8-6.5H-113v20h4.4
	V415 M-47.5,375.9c-12.2,0-19.3,6.9-19.3,18.9c0,12.1,6.8,18.7,19.3,18.7c12.5,0,19.3-6.6,19.3-18.7
	C-28.2,382.8-35.2,375.9-47.5,375.9 M-47.5,415.9c-17.9,0-27.6-10.9-27.6-21.1c0-13.3,14-21.3,27.6-21.3c17.9,0,27.6,11,27.6,21.3
	C-20,408.5-34.2,415.9-47.5,415.9 M8.8,415.9c-10.1,0-22.1-3.6-22.1-20.6v-18.5h-4.1v-2.4h16.3v2.4h-4.5v18.5
	c0,15.9,9,18.3,14.4,18.3c8.4,0,17.5-4.8,17.5-18.3v-18.5h-4.1v-2.4h10v2.4h-3.8v18.5C28.4,410.5,17.8,415.9,8.8,415.9 M47.6,394.6
	h14.6c7,0,10.2-2.8,10.2-8.9c0-6.1-3.2-8.9-10.2-8.9H47.6V394.6z M62.7,397h-15v15.7h3.7v2.4H35.6v-2.4h4.7v-35.8h-4.7v-2.4h26.7
	c4.6,0,18.5,0,18.5,11.3c0,5.1-2.9,8.7-8.3,10.2C72.5,396,69.4,397,62.7,397L62.7,397z M160.5,370.2l1.1,12.1l-2.2-0.1l-0.6-2
	c-3.1-9.1-9.4-13-19.4-13c-9.9,0-15.8,2.8-15.8,7.5c0,5.1,8.2,7.2,16.9,9.4c10.7,2.7,22.9,5.8,22.9,15.9c0,10.6-8.2,16-24.3,16
	c0,0-11.9-0.4-21.1-3.9l-2.7-14.3h2l0.8,2.2c3.3,8.2,11.5,13.4,20.9,13.4c6.9,0,18.6-1.3,18.6-9.7c0-6-8.7-8.1-17.9-10.4
	c-10.8-2.6-21.9-5.3-21.9-15c0-8.8,7.8-13.8,21.5-13.8c4.2,0,6.6,0.5,10.6,1.6C149.9,366.3,156.8,368.3,160.5,370.2 M211.9,415.4
	l-0.2,0c-0.1,0-7-0.3-10.9-0.3h-30.3v-2.4h4.5v-35.8h-4.5v-2.4h29.4c3.7,0,7.5,0,8.4-0.3l2.2-0.3l1.3,11.4l-1.8,0.1l-0.2-0.6
	c-2.4-7.5-6.1-8-10-8h-17.5v15.9h9.8c7,0,9.3-0.9,9.3-6v-0.9h2.1v15.6h-2.1v-0.9c0-3.8-2.3-5.5-9.3-5.5h-9.8v17.6h18.5
	c6.7,0,8.3-2.1,10.6-7.5l0.2-0.6h2.2L211.9,415.4 M230.8,399.3h22.9l-11.4-20.7L230.8,399.3z M256.9,415v-2.4h4.2l-6.1-11h-25.6
	l-6.2,11h4.2v2.4h-10.3v-2.4h3.6l20-35.8h-3.6v-2.4h10.9l0.2,0.4l20.9,37.8h4v2.4L256.9,415L256.9,415z M349.7,373.5
	c-13.5,0-27.6,8-27.6,21.3c0,10.2,9.7,21.1,27.6,21.1c13.4,0,27.6-7.4,27.6-21.1C377.3,384.5,367.6,373.5,349.7,373.5 M349.7,413.5
	c-12.4,0-19.3-6.6-19.3-18.7c0-12,7-18.9,19.3-18.9c12.3,0,19.3,6.9,19.3,18.9C369,406.9,362.2,413.5,349.7,413.5 M380.7,374.4v2.4
	h3.2l1.8,1.7v34.2h-4.8v2.4h11.2v-2.4h-4.3v-32.2l38.3,36.1l0.4,0.4v-40.2h3.6v-2.4H420v2.4h4.4V405l-32.2-30.5l-0.1-0.1H380.7
	 M85.5,413.6c-6.2-0.2-6.8-2.5-8.4-5.6l-5.6-12.2h-8.3L73.6,416h12L85.5,413.6 M314,378.6l0.9,9.9l-1.8,0l-0.5-1.7
	c-2.5-7.4-7.7-10.6-15.9-10.6c-8.1,0-12.9,2.3-12.9,6.1c0,4.2,6.7,5.9,13.8,7.7c8.8,2.2,18.7,4.7,18.7,13c0,8.7-6.7,13.1-19.8,13.1
	c0,0-9.7-0.3-17.2-3.2l-2.2-11.7h1.7l0.7,1.8c2.7,6.7,9.4,11,17.1,11c5.7,0,15.2-1,15.2-7.9c0-4.9-7.1-6.7-14.6-8.5
	c-8.8-2.1-17.9-4.3-17.9-12.2c0-7.2,6.4-11.3,17.6-11.3c3.4,0,5.4,0.4,8.7,1.3C305.4,375.4,311,377,314,378.6 M471.5,378.6l0.9,9.9
	l-1.8,0l-0.5-1.7c-2.5-7.4-7.7-10.6-15.9-10.6c-8.1,0-12.9,2.3-12.9,6.1c0,4.2,6.7,5.9,13.8,7.7c8.8,2.2,18.7,4.7,18.7,13
	c0,8.7-6.7,13.1-19.8,13.1c0,0-9.7-0.3-17.2-3.2l-2.2-11.7h1.7l0.7,1.8c2.7,6.7,9.4,11,17.1,11c5.7,0,15.2-1,15.2-7.9
	c0-4.9-7.1-6.7-14.6-8.5c-8.8-2.1-17.9-4.3-17.9-12.2c0-7.2,6.4-11.3,17.6-11.3c3.4,0,5.4,0.4,8.7,1.3
	C462.9,375.4,468.5,377,471.5,378.6 M238.1,257c-3.5,1.4-5.7,4-4.8,8.3C237.5,263.8,238.6,260.7,238.1,257 M224.2,259.5
	c0.7,3.7,2.7,6.4,7.1,6.4C230.8,261.6,227.9,259.8,224.2,259.5 M231.2,277.2c-0.2-4.3-3.1-6.1-7-6.4
	C224.7,274.4,226.6,277.1,231.2,277.2 M218.6,219.4c-3.7,0.3-6.6,2.1-7.1,6.4C215.9,225.8,217.9,223.1,218.6,219.4 M201.7,216.2
	c0.7,3.7,2.7,6.4,7.1,6.4C208.3,218.3,205.4,216.5,201.7,216.2 M200.7,202.8c4.4-0.1,6.4-2.7,7.1-6.4
	C204,196.7,201.2,198.4,200.7,202.8 M204.1,186.6c-3.4,1.5-5.6,4-4.7,8.3C203.6,193.5,204.6,190.3,204.1,186.6 M191.8,189.7
	c0.1,3.7,1.7,6.7,6,7.3C198,192.7,195.4,190.6,191.8,189.7 M190.2,179.2c4.4-0.1,6.4-2.7,7-6.4C193.5,173.2,190.7,174.9,190.2,179.2
	 M193.9,164c-3.2,1.8-5.1,4.6-3.8,8.7C194,170.9,194.8,167.6,193.9,164 M188.9,175.8c0.1-4.4-2.4-6.5-6-7.3
	C183,172.2,184.6,175.2,188.9,175.8 M186.6,182.2c-0.5-4.3-3.3-6.1-7-6.4C180.2,179.4,182.2,182.1,186.6,182.2 M174.9,190.7
	c1.3-0.8,14.8-8.7,14.8-8.7c0,0,0.1-0.1,0.1-0.2l-0.6-4.8h-0.2c0,0,0.2,2,0.1,2.8c-0.1,0.9-0.2,1.2-0.9,1.7l-15,7.7
	c0,1.2,0,2.3,0.1,3.5C173.5,192.1,173.9,191.4,174.9,190.7 M171.6,148c-0.5-4.3-3.3-6.1-7-6.4C165.2,145.3,167.2,148,171.6,148
	 M171.5,155.1c-0.5-4.3-3.3-6.1-7-6.4C165.1,152.4,167.1,155.1,171.5,155.1 M171.4,162.2c-0.5-4.3-3.3-6.1-7-6.4
	C165,159.5,167,162.1,171.4,162.2 M171.3,169.3c-0.5-4.3-3.3-6.1-7-6.4C164.9,166.5,166.9,169.2,171.3,169.3 M171.2,176.4
	c-0.5-4.3-3.3-6.1-7-6.4C164.8,173.7,166.8,176.3,171.2,176.4 M171.1,183.5c-0.5-4.3-3.3-6.1-7-6.4
	C164.7,180.7,166.7,183.4,171.1,183.5 M161.6,167.3c-3.6,1.2-5.9,3.5-5.4,7.8C160.5,174.1,161.8,171,161.6,167.3 M156.4,180.4
	c4.4-0.1,6.4-2.7,7-6.4C159.7,174.3,156.8,176,156.4,180.4 M154.7,176c0.6-4.3-1.7-6.7-5.2-8C149.2,171.7,150.4,174.8,154.7,176
	 M153.7,180.9c-0.5-4.3-3.3-6.1-7-6.4C147.4,178.1,149.4,180.8,153.7,180.9 M164.1,200.8c-3.7,0.3-6.6,2.1-7.1,6.4
	C161.5,207.1,163.5,204.4,164.1,200.8 M151.9,204.5c4.4-0.1,6.4-2.7,7.1-6.4C155.2,198.4,152.4,200.2,151.9,204.5 M169.3,203.4
	c-3.7,0.3-6.6,2.1-7.1,6.4C166.6,209.8,168.6,207.1,169.3,203.4 M160.1,196.1c4.4-0.1,6.4-2.7,7-6.4
	C163.4,190,160.5,191.8,160.1,196.1 M155.1,193.3c4.4-0.1,6.4-2.7,7-6.4C158.4,187.2,155.6,188.9,155.1,193.3 M150.1,190.3
	c4.4-0.1,6.4-2.7,7-6.4C153.4,184.2,150.5,186,150.1,190.3 M153.8,195.3c-3.7,0.3-6.6,2.1-7.1,6.4
	C151.1,201.7,153.1,199,153.8,195.3 M145.4,194.9c0.5-4.3-1.8-6.7-5.4-7.9C139.8,190.7,141.2,193.8,145.4,194.9 M144,201.5
	c-0.5-4.4-3.3-6.1-7.1-6.4C137.7,198.7,139.7,201.4,144,201.5 M147.8,223.7c-3.7,0.3-6.6,2.1-7.1,6.4
	C145.1,230,147.1,227.3,147.8,223.7 M135.7,227.2c4.4-0.1,6.4-2.7,7.1-6.4C139,221.1,136.2,222.9,135.7,227.2 M152.9,226.3
	c-3.7,0.3-6.6,2.1-7.1,6.4C150.2,232.7,152.3,230,152.9,226.3 M158.1,229c-3.7,0.3-6.6,2.1-7.1,6.4
	C155.4,235.4,157.4,232.7,158.1,229 M163.3,231.7c-3.7,0.3-6.6,2.1-7.1,6.4C160.6,238,162.6,235.4,163.3,231.7 M168.5,234.3
	c-3.7,0.3-6.6,2.1-7.1,6.4C165.8,240.7,167.8,238,168.5,234.3 M161.1,223.8c4.4-0.1,6.4-2.7,7.1-6.4
	C164.4,217.7,161.5,219.5,161.1,223.8 M156,220.9c4.4-0.1,6.4-2.7,7.1-6.4C159.4,214.8,156.5,216.5,156,220.9 M151.1,217.9
	c4.4-0.1,6.4-2.7,7.1-6.4C154.4,211.8,151.6,213.6,151.1,217.9 M146.1,215c4.4-0.1,6.4-2.7,7.1-6.4
	C149.4,208.9,146.6,210.7,146.1,215 M141.1,212.1c4.4-0.1,6.4-2.7,7.1-6.4C144.5,206,141.6,207.7,141.1,212.1 M142.6,214.2
	c-3.7,0.3-6.6,2.1-7.1,6.4C139.9,220.6,141.9,217.9,142.6,214.2 M134.7,217.1c1.1-4.2-1-6.9-4.4-8.5
	C129.6,212.3,130.6,215.5,134.7,217.1 M133.5,222.7c-0.5-4.4-3.3-6.1-7.1-6.4C127.1,220,129.1,222.6,133.5,222.7 M132.5,229.1
	c-0.5-4.4-3.3-6.1-7.1-6.4C126.1,226.4,128.1,229.1,132.5,229.1 M144.7,247.1c4.4-0.1,6.4-2.7,7.1-6.4
	C148,240.9,145.2,242.7,144.7,247.1 M144.7,257.1c4.4-0.1,6.4-2.7,7.1-6.4C148,251,145.2,252.8,144.7,257.1 M139.8,244.2
	c4.4-0.1,6.4-2.8,7.1-6.4C143.1,238,140.3,239.8,139.8,244.2 M134.8,241.2c4.4-0.1,6.4-2.8,7.1-6.4
	C138.2,235.1,135.3,236.9,134.8,241.2 M129.9,238.3c4.4-0.1,6.4-2.8,7.1-6.4C133.2,232.2,130.4,234,129.9,238.3 M232.2,265.8
	c0,0,0.7,7.2,0.5,10.1c-0.2,3.3-0.7,4.4-3.2,6.1l-54.2,27.9v0c-0.1-5.3-0.2-11.4-0.3-18l0-1.7c-0.1-3.6,0.9-5.6,5.2-8.3
	c3.7-2.4,43.7-25.7,43.7-25.7c0.1-0.1,0.2-0.2,0.2-0.5l-1.8-14.2h-0.6c0,0,0.5,6,0.4,8.4c-0.2,2.7-0.5,3.7-2.6,5l-44.7,23
	c-0.1-6.9-0.2-14.1-0.4-21.4l0-2c0.1-2.3,0.9-3.7,3.8-5.5c2.8-1.8,32.6-19.2,32.6-19.2c0.1,0,0.2-0.1,0.2-0.4l-1.4-10.6h-0.5
	c0,0,0.4,4.5,0.3,6.2c-0.1,2-0.4,2.7-1.9,3.7l-33.3,17.1c-0.1-8.3-0.3-16.7-0.4-24.9v0c0.2-1.2,0.9-2.7,2.7-3.8
	c2-1.3,23.4-13.8,23.4-13.8c0,0,0.1-0.1,0.1-0.3l-1-7.6h-0.3c0,0,0.3,3.2,0.2,4.5c-0.1,1.5-0.3,2-1.4,2.7l-23.8,12.3v0
	c-0.1-7.6-0.3-15.1-0.4-22.1c0-1.2,0-2.4-0.1-3.5c-0.5-27.4-0.9-47.7-0.9-47.7c0-0.1-0.1-0.2-0.2-0.2c-0.1,0-0.2,0.1-0.2,0.2
	c0,0-0.4,20.3-0.8,47.6c0,0.5,0,1.1,0,1.7c0-0.6,0-1.1,0-1.7l-14.9-7.7c-0.7-0.5-0.8-0.8-0.9-1.7c-0.1-0.8,0.1-2.8,0.1-2.8h-0.2
	l-0.6,4.8c0,0.1,0,0.1,0.1,0.2c0,0,13.5,7.9,14.8,8.7c0.9,0.6,1.3,1.2,1.6,1.9v0l0,0c-0.1,7.1-0.3,14.6-0.4,22.3l-23.8-12.2
	c-1.1-0.7-1.3-1.2-1.4-2.7c-0.1-1.3,0.2-4.5,0.2-4.5h-0.3l-1,7.6c0,0.2,0.1,0.2,0.1,0.3c0,0,21.4,12.5,23.4,13.8
	c1.7,1.1,2.4,2.4,2.7,3.5v0c-0.1,8.3-0.3,16.8-0.4,25.2l-33.3-17.1c-1.5-1-1.8-1.7-1.9-3.7c-0.1-1.8,0.3-6.2,0.3-6.2h-0.5l-1.4,10.6
	c0,0.2,0.1,0.3,0.2,0.4c0,0,29.9,17.5,32.6,19.2c3,1.9,3.8,3.3,3.8,5.7l0,2.1v0c-0.1,7.2-0.2,14.3-0.4,21.1l-44.7-23
	c-2.1-1.3-2.4-2.3-2.6-5c-0.2-2.4,0.4-8.3,0.4-8.3H122l-1.8,14.2c0,0.3,0.1,0.4,0.2,0.5c0,0,40,23.4,43.7,25.7
	c4.3,2.7,5.3,4.7,5.2,8.3v0c-0.1,7.3-0.2,13.9-0.3,19.7L114.8,282c-2.5-1.6-2.9-2.8-3.2-6.1c-0.2-2.9,0.5-10.1,0.5-10.1h-0.7
	l-2.2,17.2c0,0.4,0.2,0.5,0.3,0.6c0,0,48.4,28.3,52.9,31.2c5.3,3.3,6.3,3.6,6.3,9.7c0,0.3-0.1,7.3-0.1,7.6c0,5.3-4.2,5.5-4.2,5.5
	l0,1h15.5l0-1c0,0-4.2-0.1-4.2-5.5c0-0.3-0.1-7.1-0.1-7.6c0-6.1,1.1-6.3,6.3-9.7c4.5-2.9,52.9-31.2,52.9-31.2
	c0.1-0.1,0.3-0.2,0.3-0.6l-2.2-17.2H232.2 M154.9,253.1c4.4-0.1,6.4-2.7,7.1-6.4C158.2,247,155.4,248.8,154.9,253.1 M166.9,249.9
	c-3.7,0.3-6.6,2.1-7.1,6.4C164.2,256.3,166.2,253.6,166.9,249.9 M193.3,235.4c3.4-2.7,3.4-6.1,1.7-9.4
	C192.2,228.5,191,231.6,193.3,235.4 M186.2,230.6c-2.8,2.5-3.9,5.7-1.7,9.4C187.9,237.3,187.9,233.9,186.2,230.6 M176.9,217.7
	c0.7,3.7,2.7,6.4,7.1,6.4C183.4,219.7,180.6,218,176.9,217.7 M202,246.5c-0.5-4.4-3.3-6.1-7.1-6.4
	C195.6,243.8,197.6,246.4,202,246.5 M193.2,251.3c-0.5-4.4-3.3-6.1-7.1-6.4C186.8,248.5,188.8,251.2,193.2,251.3 M218,286.7
	c-0.5-4.4-3.3-6.1-7.1-6.5C211.6,283.9,213.6,286.6,218,286.7 M207.8,291.3c-0.5-4.4-3.3-6.1-7.1-6.4
	C201.4,288.6,203.4,291.3,207.8,291.3 M196,274c0.7,3.7,2.7,6.4,7.1,6.4C202.6,276.1,199.8,274.3,196,274 M189.4,300.7
	c-0.5-4.4-3.3-6.1-7.1-6.4C183,298,185,300.7,189.4,300.7 M228.4,289.8c-0.7,4.3,1.8,6.6,5.6,7.7
	C234.3,293.8,232.9,290.8,228.4,289.8 M218.7,296.8c0.2,4.4,3.1,6.1,7.1,6.5C225.3,299.6,223.4,296.9,218.7,296.8 M203.8,311.2
	c4.1-1.7,5-4.9,4.2-8.6C204.7,304.2,202.7,306.9,203.8,311.2 M221.2,244.9c-0.5-4.4-3.3-6.1-7.1-6.4
	C214.8,242.2,216.8,244.8,221.2,244.9 M220.9,251.3c-0.5-4.4-3.3-6.1-7.1-6.4C214.5,248.6,216.5,251.3,220.9,251.3 M224.8,255.6
	c4.4-0.1,6.4-2.7,7.1-6.4C228.1,249.5,225.2,251.3,224.8,255.6 M230.8,238.5c-3.7,0.3-6.6,2.1-7.1,6.4
	C228.1,244.8,230.1,242.2,230.8,238.5"/>
</svg>
