<?xml version="1.0" encoding="utf-8"?>
<!-- Generator: Adobe Illustrator 18.1.1, SVG Export Plug-In . SVG Version: 6.00 Build 0)  -->
<!DOCTYPE svg PUBLIC "-//W3C//DTD SVG 1.1//EN" "http://www.w3.org/Graphics/SVG/1.1/DTD/svg11.dtd">
<svg version="1.1" id="Layer_1" xmlns="http://www.w3.org/2000/svg" xmlns:xlink="http://www.w3.org/1999/xlink" x="0px" y="0px"
	 width="800px" height="800px" viewBox="0 0 800 800" enable-background="new 0 0 800 800" xml:space="preserve">
<g>
	<g>
		<path fill="#202C5C" d="M766.864,366.907l-0.047,0.057c10.396,10.443,17.212,24.536,18.309,40.396
			c2.449,34.994-23.91,65.317-58.861,67.761c-16.443,1.158-31.851-4.068-43.832-13.548l-0.052,0.062
			c12.427,11.559,29.43,18.185,47.71,16.903c34.961-2.426,61.324-32.772,58.889-67.747
			C787.74,393.105,779.362,377.587,766.864,366.907"/>
		<path fill="#202C5C" d="M654.399,439.153c-2.041,1.13-2.473,2.82-1.438,5.44c0.949,2.373,2.44,3.418,4.044,2.748
			c1.277-0.494,1.495-1.604,0.973-4.443l-0.233-1.12c-0.517-2.829-0.612-4.03-0.271-5.264c0.328-1.372,1.111-2.236,2.307-2.71
			c2.867-1.163,5.582,0.626,7.196,4.661c1.742,4.357,0.802,7.638-2.601,9.057l-0.859-2.136c2.378-1.007,2.986-3.237,1.69-6.394
			c-1.016-2.596-2.677-3.745-4.391-3.047c-1.41,0.56-1.718,1.837-1.206,4.78l0.204,1.248l0.171,1.082
			c0.375,2.165,0.422,2.953,0.214,3.888c-0.28,1.153-1.011,2.003-2.207,2.468c-2.691,1.077-5.302-0.494-6.764-4.139
			c-1.562-3.959-0.712-6.883,2.307-8.231L654.399,439.153z"/>
	</g>
	<polygon fill="#202C5C" points="652.59,416.221 662.236,408.114 662.283,411.09 654.123,417.854 656.767,420.778 662.501,420.65 
		662.544,423.01 646.201,423.361 646.139,421.025 652.561,420.878 653.468,420.878 654.289,420.868 653.743,420.28 653.174,419.71 
		645.944,411.873 645.873,408.755 	"/>
	<g>
		<path fill="#202C5C" d="M659.839,390.839l6.309,2.217l-0.764,2.222l-6.318-2.222l-11.293,3.418l0.94-2.701l7.03-1.97l0.854-0.223
			c0.347-0.114,0.57-0.147,1.177-0.294c-0.546-0.665-0.669-0.802-1.244-1.619l-4.324-5.853l0.892-2.592L659.839,390.839z"/>
	</g>
	<polygon fill="#202C5C" points="670.912,360.751 667.456,364.99 677.776,373.444 675.307,376.482 664.969,368.028 661.527,372.248 
		659.192,370.325 668.567,358.848 	"/>
	<polygon fill="#202C5C" points="693.01,345.243 684.746,350.085 686.507,353.109 694.088,348.675 695.507,351.086 687.926,355.51 
		689.953,358.999 698.365,354.063 699.907,356.678 688.088,363.576 679.833,349.449 691.477,342.623 	"/>
	<g>
		<path fill="#202C5C" d="M715.321,343.174c-0.902-1.481-1.244-2.165-1.761-3.332c-0.142,1.182-0.285,2.041-0.698,3.721
			l-0.669,3.128l4.752-0.769L715.321,343.174z M724.673,351.614l-4.248,0.28l-2.131-3.541l-6.598,1.063l-0.926,4.03l-4.078,1.04
			l4.296-17.891l4.035-0.641L724.673,351.614z"/>
		<path fill="#202C5C" d="M750.977,356.866l-3.446-1.319l1.324-4.875c0.119-0.56,0.337-1.339,0.631-2.35
			c0.285-1.03,0.522-1.813,0.674-2.416c0.233-0.66,0.422-1.324,0.655-2.046l0.37-1.153c-0.959,1.652-1.348,2.226-2.24,3.565
			c-0.346,0.593-0.693,1.078-0.992,1.505l-4.642,6.513l-2.991-0.798l-0.921-7.813c-0.076-0.413-0.109-0.959-0.157-1.747
			c-0.071-1.035-0.104-1.813-0.147-2.35c-0.01-0.437-0.01-1.082,0-1.989l-0.418,1.989c-0.47,2.15-0.693,3.071-1.343,5.653
			l-1.362,5.274l-3.622-0.574l4.087-16.006l5.511,1.073l0.783,7.581c0.19,1.771,0.237,3.266,0.157,5.359
			c0.608-1.201,0.835-1.604,1.538-2.706c0.484-0.755,0.892-1.376,1.282-1.927l4.301-6.19l5.226,1.775L750.977,356.866z"/>
		<path fill="#202C5C" d="M750.602,409.724c4.714-3.19,8.649-4.894,11.089-4.809c1.434,0.043,3.185,0.489,3.185,2.264
			c0,1.842-1.756,3.38-5.174,4.609c-2.986,1.082-7.609,1.343-12.627,0.783C748.461,411.328,749.629,410.365,750.602,409.724
			 M684.185,415.525c-2.919-0.19-4.353-1.372-4.353-3.631c0-0.299,0.199-7.486,16.609-8.297c1.87-0.1,3.959-0.171,7.139,0.199
			l-1.851,1.609l-1.035,0.93C696.749,409.938,690.113,415.938,684.185,415.525 M719.696,388.411
			c-1.984,1.728-5.915,5.521-9.717,9.162l-4.32,4.125c-3.489-0.617-6.964-0.93-10.543-0.949c-7.975,0-15.285,2.217-18.622,5.639
			c-1.253,1.301-1.894,2.701-1.851,4.186c0.062,3.878,4.486,5.801,5.843,6.323c7.082,2.63,13.006,1.866,19.258-2.511
			c3.446-2.407,7.59-6.275,10.837-9.404c2.516,0.579,5.369,1.348,8.454,2.231l2.843,0.84c-3.684,3.617-7.457,7.424-10.961,10.51
			l-0.266,0.251c-4.851,4.282-8.369,7.367-13.443,8.511c-3.593,0.774-6.109,0.033-6.949-0.475l-0.199,0.161
			c2.948,2.426,5.729,3.797,10.51,3.375c4.571-0.389,9.831-3.247,15.218-8.312l7.267-7.134l5.098-5.06l10.296,3.019l0.176,0.066
			l-6.37,6.199l-5.464,5.44c-5.606,5.449-8.653,8.269-11.938,10.581c-5.397,3.864-10.054,5.858-14.131,6.128
			c-2.117,0.147-5.169-0.01-7.714-1.486l-0.261,0.123c2.763,2.35,6.147,5.198,11.991,5.055c6.603-0.223,12.446-3.394,21.565-11.763
			c4.144-3.807,8.259-8.074,11.91-11.848l6.764-6.855c4.457,0.992,8.43,1.396,12.836,1.325c6.408-0.152,11.896-3.209,11.953-6.731
			c0.081-2.601-2.07-4.006-3.342-4.818c-1.063-0.693-3.921-2.298-7.889-2.298c-4.799,0-9.826,2.132-14.91,6.332l-3.38,2.995
			l-1.248-0.337l-9.413-2.658c2.772-2.596,5.15-4.828,7.267-6.726c5.169-4.581,10.856-6.47,14.198-6.684
			c2.43-0.161,6.65,0.033,8.392,1.277l0.199-0.176c-4.633-3.964-8.649-4.5-11.953-4.5c-3.266,0-8.483,1.03-14.896,5.991
			c-2.615,2.027-6,5.43-9.555,9.014l-4.766-1.467l-1.139-0.365l-5.008-1.524l2.853-2.701c3.366-3.299,6.56-6.427,9.048-8.544
			c9.028-7.586,14.715-8.578,18.664-8.62c4.334-0.019,7.785,0.878,10.239,2.658l0.185-0.166c-5.065-4.6-8.729-6.071-15.024-6.114
			C732.749,379.658,726.147,382.748,719.696,388.411"/>
		<path fill="#202C5C" d="M760.245,344.521c0.304,0.161,0.835,0.532,1.063,0.133c0.133-0.271-0.176-0.503-0.456-0.674l-0.688-0.366
			l-0.356,0.665L760.245,344.521z M760.587,346.724l-0.437-0.237l-0.119-1.604l-0.432-0.247l-0.66,1.187l-0.361-0.195l1.424-2.587
			l1.13,0.636c0.456,0.256,0.854,0.612,0.541,1.168c-0.285,0.508-0.75,0.498-1.201,0.275L760.587,346.724z M762.159,345.936
			c0.617-1.101,0.195-2.501-0.892-3.081c-1.101-0.603-2.497-0.237-3.1,0.878c-0.603,1.111-0.171,2.492,0.911,3.095
			C760.151,347.421,761.556,347.051,762.159,345.936 M757.682,343.79c0.608-1.381,2.165-2.012,3.541-1.419
			c1.377,0.593,1.998,2.16,1.424,3.531c-0.584,1.363-2.15,1.994-3.536,1.386C757.73,346.7,757.098,345.148,757.682,343.79"/>
	</g>
	<polygon fill="#26265D" points="272.548,396.963 278.89,403.614 285.27,396.963 278.89,390.351 	"/>
	<polygon fill="#26265D" points="245.655,313.499 239.299,306.853 232.9,313.499 239.299,320.116 	"/>
	<polygon fill="#26265D" points="255.829,396.963 262.275,403.614 268.641,396.963 262.275,390.351 	"/>
	<polygon fill="#26265D" points="262.395,313.499 255.944,306.853 249.569,313.499 255.944,320.116 	"/>
	<g>
		<path fill="#26265D" d="M398.996,366.569h-22.448v-1.59c0-19.154,14.886-30.821,22.448-32.881V366.569z M570.3,319.931v46.78
			c0,2.668-0.256,4.913-1.196,6.503c-1.154,1.922-3.185,3.532-7.063,3.532s-5.929-1.609-7.101-3.532
			c-0.949-1.59-1.229-3.835-1.229-6.503v-33.76h-10.994v33.617H528.96v-33.565h-10.913v33.565H504.3v-33.617h-10.922v33.617h-42.18
			c-12.171-0.845-15.014-7.343-15.014-13.381c0-8.483,7.524-11.758,15.745-11.758h17.905v-8.478h-15.897
			c-12.926,0-23.748,5.316-23.748,18.764c0,8.748,3.93,12.717,7.353,14.853h-27.684v-41.672
			c-23.929,2.972-42.916,20.848-42.916,50.203h32.055v10.325c0,3.978,0.446,11.596-5.35,12.684v4.566
			c4.04-0.437,10.581-3.142,13.467-8.046c2.259-3.807,2.744-7.277,2.744-15.27v-4.258h134.245c0.422,1.054,0.992,2.141,1.733,3.228
			c3.351,4.633,9.28,6.703,16.206,6.703c6.845,0,12.721-2.07,16.068-6.703c2.777-3.93,3.09-7.818,3.09-12.546v-45.85H570.3z"/>
	</g>
	<rect x="596.501" y="319.932" fill="#26265D" width="10.847" height="55.168"/>
	<g>
		<path fill="#26265D" d="M332.13,332.751h-15.679v8.559h13.139c10.149,0,20.554,0.498,20.554,12.261
			c0,10.462-7.676,12.821-21.389,12.821H302.41v8.54h28.305c17.07,0,25.438-5.231,25.438-21.309
			C356.154,337.436,346.228,332.751,332.13,332.751"/>
		<path fill="#26265D" d="M251.32,366.57h-22.291v-1.438c0-19.04,14.687-31.04,22.291-33.095V366.57z M278.889,366.57
			c0,2.725-0.299,4.923-1.248,6.57c-1.154,1.918-3.142,3.489-7.044,3.489c-3.831,0-5.896-1.571-7.068-3.489
			c-0.954-1.647-1.253-3.845-1.253-6.57v-41.71c-26.032,2.459-42.883,23.022-42.883,50.236h33.252c0.465,1.059,1.035,2.07,1.756,3.1
			c3.313,4.628,9.233,6.707,16.116,6.707c6.949,0,12.764-2.079,16.073-6.707c2.843-3.892,3.195-7.761,3.195-12.536v-36.394h-10.894
			V366.57z"/>
		<path fill="#26265D" d="M383.343,480.47c-10.761,0-18.85-2.25-23.82-7.02c-4.41-4.097-6.441-8.758-6.441-18.071v-38.896h11.663
			v40.543c0,5.971,0.921,9.375,3.779,12.437c3.076,3.318,8.378,5.112,14.82,5.112c6.403,0,11.672-1.795,14.758-5.112
			c2.848-3.062,3.741-6.465,3.741-12.437v-40.543h11.744v38.896c0,9.313-2.079,13.975-6.446,18.071
			C402.15,478.22,394.009,480.47,383.343,480.47"/>
		<path fill="#26265D" d="M459.574,473.703c-2.335,0-7.419-0.256-9.589-2.022c-1.775-1.533-1.818-4.025-1.818-7.775v-43.457
			c17.962-1.595,37.847,3.712,37.847,27.351C486.014,466.725,473.71,473.703,459.574,473.703 M457.31,415.188
			c-5.748,0.143-19.904,0.764-30.228,3.745l0.968,4.643c2.791-0.783,5.407-1.343,8.43-1.837v57.394
			c16.524,0.323,23.616,0.266,32.274-0.731c15.19-1.832,29.535-13.249,29.535-30.788
			C498.289,422.921,476.212,414.818,457.31,415.188"/>
	</g>
	<rect x="514.429" y="416.487" fill="#26265D" width="11.739" height="62.649"/>
	<g>
		<path fill="#26265D" d="M297.464,451.906c5.972,0,17.136,0.802,25.082,7.13l-14.278-29.245L297.464,451.906z M345.436,479.138
			h-13.291c-4.69-9.503-16.922-23.283-37.229-21.949l-10.69,21.949h-8.288l32.734-63.669h4.158L345.436,479.138z"/>
		<path fill="#26265D" d="M559.672,451.905c5.976,0,17.136,0.816,25.063,7.144l-14.259-29.25L559.672,451.905z M607.638,479.142
			h-13.291c-4.695-9.503-16.927-23.269-37.239-21.945l-10.685,21.945h-8.279l32.711-63.674h4.191L607.638,479.142z"/>
		<path fill="#26265D" d="M266.698,418.618c-3.361-1.771-11.753-4.367-20.416-4.22c-15.309,0.389-25.514,6.632-25.619,17.915
			c-0.066,2.231,0.422,5.065,1.785,7.495c7.405,12.688,38.084,10.604,38.084,24.199c0,3.888-3.712,10.272-14.25,10.272
			c-11.459,0-20.188-5.293-24.37-8.573l-3.019,9.185c3.555,1.832,13.125,5.321,26.862,5.321c6.161,0,13.158-1.666,18.28-5.653
			c4.965-3.897,7.201-8.696,7.201-14.63c0-22.49-39.218-16.837-39.218-30.963c0-2.335,1.291-4.011,1.747-4.585
			c2.127-2.758,6.783-4.424,12.669-4.424c5.483,0,11.255,1.846,16.984,6.404L266.698,418.618z"/>
		<path fill="#B09255" d="M176.505,433.587l-0.223,0.366c-14.198,24.698-40.809,41.331-71.355,41.331
			c-45.427,0-82.253-36.821-82.253-82.244c0-14.891,3.964-28.856,10.903-40.908l0.18-0.323l-0.09-0.309l-0.304,0.114l-0.209,0.29
			c-1.229,1.771-2.373,3.636-3.475,5.52c-22.581,39.422-8.658,89.839,31.106,112.633c39.75,22.794,90.309,9.323,112.87-30.081
			c1.116-1.889,2.127-3.835,3.047-5.801l0.176-0.384l-0.095-0.323L176.505,433.587z"/>
		<path fill="#B09255" d="M84.789,329.469c-11.696,2.492-31.343,14.521-35.521,34.486c12.608-14.886,25.737-22.704,35.786-24.532
			c-10.282,7.694-19.946,25.642-16.946,38.231c5.44-13.377,14.976-26.459,23.71-31.224c-4.946,8.16-6.57,27.878-1.832,36.574
			c1.111-11.283,4.676-25.96,10.296-33.204l1.671,14.155h-1.918l2.017,14.411h-1.6l1.676,14.411h-1.377l2.117,14.402l-6.812,3.484
			v0.494h17.758v-0.494L107,407.179l-2.07,1.604l2.055-1.604l2.089-14.402h-1.367l1.68-14.411h-1.609l2.032-14.411h-1.927
			l1.676-14.155c5.625,7.244,9.18,21.921,10.296,33.204c4.747-8.696,3.109-28.414-1.828-36.574
			c8.739,4.766,18.261,17.848,23.725,31.224c2.986-12.589-6.669-30.536-16.956-38.231c10.049,1.828,23.165,9.645,35.763,24.532
			c-4.153-19.965-23.796-31.994-35.511-34.486c12.892-1.281,25.448,2.848,36.826,8.378c-12.366-14.264-31.021-19.448-43.353-18.033
			c2.079-2.207,4.101-3.38,7.248-4.31c-5.217-2.435-13.32-1.158-16.481,2.383c0,0-0.579-6.617-4.358-9.218
			c-3.802,2.601-4.362,9.218-4.362,9.218c-3.176-3.541-11.269-4.818-16.472-2.383c3.138,0.93,5.141,2.103,7.248,4.31
			c-12.351-1.414-31.021,3.769-43.377,18.033C59.375,332.317,71.916,328.187,84.789,329.469"/>
		<path fill="#B09255" d="M108.445,421.431c-0.973,0.641-2.184,1.457-3.522,2.373c-1.343-0.916-2.549-1.733-3.517-2.373
			c-5.231-3.513-49.438-33.095-68.549-12.166c17.635-6.997,43.766,6.214,65.283,19.182c-5.388,3.684-11.525,7.913-16.728,11.445
			c-8.264-8.013-11.331-6.731-12.076-6.413c-0.807,0.337-1.377,1.087-1.415,2.008c-0.014,1.21,0.916,2.226,2.093,2.259
			c1.187,0.029,2.188-0.945,2.207-2.15l-0.047-0.494c2.288,1.443,4.415,3.389,9.76,8.896c5.43,5.63,7.543,7.177,9.142,8.117
			c1.101,0.641,2.222,0.802,2.91,0.745c1.12-0.052,2.241-0.864,2.293-2.131c0.066-1.258-0.869-2.298-2.084-2.307
			c-1.191-0.028-2.203,0.944-2.203,2.198v0.209c-1.476-1.073-3.057-3.005-6.209-6.413c5.179-2.957,11.772-7.225,19.139-11.815
			c7.362,4.59,13.951,8.858,19.13,11.815c-3.142,3.408-4.723,5.34-6.214,6.413l0.005-0.209c0.005-1.253-1.011-2.226-2.212-2.198
			c-1.22,0.01-2.146,1.049-2.07,2.307c0.052,1.267,1.158,2.079,2.288,2.131c0.684,0.057,1.799-0.104,2.919-0.745
			c1.6-0.94,3.707-2.488,9.147-8.117c5.331-5.506,7.476-7.453,9.75-8.896l-0.043,0.494c0.033,1.206,1.025,2.179,2.193,2.15
			c1.177-0.033,2.122-1.049,2.108-2.259c-0.043-0.921-0.608-1.671-1.415-2.008c-0.745-0.318-3.816-1.6-12.081,6.404
			c-5.198-3.522-11.359-7.752-16.728-11.435c21.522-12.968,47.658-26.179,65.283-19.182
			C157.87,388.337,113.667,417.919,108.445,421.431"/>
		<path fill="#B09255" d="M59.107,448.998c-0.679-0.299-1.381-0.688-1.747-0.74c-0.242-0.029-0.465,0.024-0.622,0.194
			c-0.142,0.176-0.195,0.546-0.043,0.845c0.095,0.218,0.351,0.626,1.04,1.225c2.891,2.511,8.706,4.756,24.033-3.817
			c-0.47-0.465-0.945-0.968-1.453-1.476c-1.03-1.063-1.932-1.994-2.729-2.796C69.493,447.551,63.07,450.617,59.107,448.998"/>
		<path fill="#B09255" d="M150.736,448.998c-3.968,1.619-10.386-1.448-18.479-6.565c-0.807,0.802-1.69,1.733-2.739,2.796
			c-0.494,0.508-0.978,1.011-1.429,1.476c15.294,8.573,21.128,6.328,24.014,3.817c0.698-0.598,0.945-1.007,1.044-1.225
			c0.166-0.299,0.114-0.669-0.047-0.845c-0.142-0.171-0.361-0.223-0.608-0.194C152.132,448.31,151.429,448.699,150.736,448.998"/>
	</g>
</g>
</svg>
